<?xml version="1.0" encoding="UTF-8" standalone="no"?>
<!DOCTYPE svg PUBLIC "-//W3C//DTD SVG 1.1//EN" "http://www.w3.org/Graphics/SVG/1.1/DTD/svg11.dtd">
<svg xmlns:dc="http://purl.org/dc/elements/1.1/" xmlns:xl="http://www.w3.org/1999/xlink" version="1.1" xmlns="http://www.w3.org/2000/svg" viewBox="904.5 -31.5 763.5776 943.25" width="763.5776" height="943.25">
  <defs>
    <marker orient="auto" overflow="visible" markerUnits="strokeWidth" id="FilledArrow_Marker" stroke-linejoin="miter" stroke-miterlimit="10" viewBox="-1 -4 10 8" markerWidth="10" markerHeight="8" color="black">
      <g>
        <path d="M 8 0 L 0 -3 L 0 3 Z" fill="currentColor" stroke="currentColor" stroke-width="1"/>
      </g>
    </marker>
  </defs>
  <g id="Canvas_1" fill="none" fill-opacity="1" stroke-dasharray="none" stroke-opacity="1" stroke="none">
    <title>Canvas 1</title>
    <rect fill="white" x="904.5" y="-31.5" width="763.5776" height="943.25"/>
    <g id="Canvas_1_Layer_1">
      <title>Layer 1</title>
      <g id="Line_71">
        <path d="M 1186.8276 158.375 L 1629.2442 156.45833 L 1629.2442 526.58333 L 1568.3564 526.7984" marker-end="url(#FilledArrow_Marker)" stroke="black" stroke-linecap="round" stroke-linejoin="round" stroke-width="1"/>
      </g>
      <g id="Graphic_67">
        <path d="M 995.5776 699.75 L 1544.5776 699.75 C 1549.5481 699.75 1553.5776 703.7794 1553.5776 708.75 L 1553.5776 775.75 C 1553.5776 780.7206 1549.5481 784.75 1544.5776 784.75 L 995.5776 784.75 C 990.607 784.75 986.5776 780.7206 986.5776 775.75 L 986.5776 708.75 C 986.5776 703.7794 990.607 699.75 995.5776 699.75 Z" fill="#ccc"/>
        <path d="M 995.5776 699.75 L 1544.5776 699.75 C 1549.5481 699.75 1553.5776 703.7794 1553.5776 708.75 L 1553.5776 775.75 C 1553.5776 780.7206 1549.5481 784.75 1544.5776 784.75 L 995.5776 784.75 C 990.607 784.75 986.5776 780.7206 986.5776 775.75 L 986.5776 708.75 C 986.5776 703.7794 990.607 699.75 995.5776 699.75 Z" stroke="black" stroke-linecap="round" stroke-linejoin="round" stroke-width="1"/>
        <text transform="translate(991.5776 704.75)" fill="black">
          <tspan font-family="Helvetica Neue" font-size="14" fill="black" x="0" y="13">Entry</tspan>
        </text>
      </g>
      <g id="Graphic_60">
        <path d="M 979.0776 -26 L 1561.0776 -26 C 1566.0481 -26 1570.0776 -21.970563 1570.0776 -17 L 1570.0776 897.25 C 1570.0776 902.2206 1566.0481 906.25 1561.0776 906.25 L 979.0776 906.25 C 974.107 906.25 970.0776 902.2206 970.0776 897.25 L 970.0776 -17 C 970.0776 -21.970563 974.107 -26 979.0776 -26 Z" fill="#666"/>
        <path d="M 979.0776 -26 L 1561.0776 -26 C 1566.0481 -26 1570.0776 -21.970563 1570.0776 -17 L 1570.0776 897.25 C 1570.0776 902.2206 1566.0481 906.25 1561.0776 906.25 L 979.0776 906.25 C 974.107 906.25 970.0776 902.2206 970.0776 897.25 L 970.0776 -17 C 970.0776 -21.970563 974.107 -26 979.0776 -26 Z" stroke="black" stroke-linecap="round" stroke-linejoin="round" stroke-width="1"/>
        <text transform="translate(975.0776 -21)" fill="white">
          <tspan font-family="Helvetica Neue" font-size="16" fill="white" x="0" y="16">DeathCertificateDocument</tspan>
          <tspan font-family="Helvetica Neue" font-size="16" fill="white" y="16"> (Profile of </tspan>
          <tspan font-family="Helvetica Neue" font-size="16" fill="white" y="16">Bundle</tspan>
          <tspan font-family="Helvetica Neue" font-size="16" fill="white" y="16"> of type Document)</tspan>
        </text>
      </g>
      <g id="Graphic_59">
        <path d="M 989.7065 19.25 L 1538.7065 19.25 C 1543.677 19.25 1547.7065 23.279437 1547.7065 28.25 L 1547.7065 465.25 C 1547.7065 470.22056 1543.677 474.25 1538.7065 474.25 L 989.7065 474.25 C 984.7359 474.25 980.7065 470.22056 980.7065 465.25 L 980.7065 28.25 C 980.7065 23.279437 984.7359 19.25 989.7065 19.25 Z" fill="#ccc"/>
        <path d="M 989.7065 19.25 L 1538.7065 19.25 C 1543.677 19.25 1547.7065 23.279437 1547.7065 28.25 L 1547.7065 465.25 C 1547.7065 470.22056 1543.677 474.25 1538.7065 474.25 L 989.7065 474.25 C 984.7359 474.25 980.7065 470.22056 980.7065 465.25 L 980.7065 28.25 C 980.7065 23.279437 984.7359 19.25 989.7065 19.25 Z" stroke="black" stroke-linecap="round" stroke-linejoin="round" stroke-width="1"/>
        <text transform="translate(985.7065 24.25)" fill="black">
          <tspan font-family="Helvetica Neue" font-size="14" fill="black" x="0" y="13">Entry</tspan>
        </text>
      </g>
      <g id="Graphic_58">
        <path d="M 1002.7065 53.25 L 1527.7065 53.25 C 1532.677 53.25 1536.7065 57.27944 1536.7065 62.25 L 1536.7065 450.25 C 1536.7065 455.22056 1532.677 459.25 1527.7065 459.25 L 1002.7065 459.25 C 997.7359 459.25 993.7065 455.22056 993.7065 450.25 L 993.7065 62.25 C 993.7065 57.27944 997.7359 53.25 1002.7065 53.25 Z" fill="white"/>
        <path d="M 1002.7065 53.25 L 1527.7065 53.25 C 1532.677 53.25 1536.7065 57.27944 1536.7065 62.25 L 1536.7065 450.25 C 1536.7065 455.22056 1532.677 459.25 1527.7065 459.25 L 1002.7065 459.25 C 997.7359 459.25 993.7065 455.22056 993.7065 450.25 L 993.7065 62.25 C 993.7065 57.27944 997.7359 53.25 1002.7065 53.25 Z" stroke="black" stroke-linecap="round" stroke-linejoin="round" stroke-width="1"/>
        <text transform="translate(998.7065 58.25)" fill="black">
          <tspan font-family="Helvetica Neue" font-size="16" fill="black" x="0" y="16">DeathCertificate</tspan>
          <tspan font-family="Helvetica Neue" font-size="16" fill="black" y="16">(Profile of </tspan>
          <tspan font-family="Helvetica Neue" font-size="16" fill="black" y="16">Composition</tspan>
          <tspan font-family="Helvetica Neue" font-size="16" fill="black" y="16">)</tspan>
        </text>
      </g>
      <g id="Graphic_57">
        <path d="M 1014.7065 88.25 L 1516.7065 88.25 C 1521.677 88.25 1525.7065 92.27944 1525.7065 97.25 L 1525.7065 119.25 C 1525.7065 124.22056 1521.677 128.25 1516.7065 128.25 L 1014.7065 128.25 C 1009.7359 128.25 1005.7065 124.22056 1005.7065 119.25 L 1005.7065 97.25 C 1005.7065 92.27944 1009.7359 88.25 1014.7065 88.25 Z" fill="#c0ffc0"/>
        <path d="M 1014.7065 88.25 L 1516.7065 88.25 C 1521.677 88.25 1525.7065 92.27944 1525.7065 97.25 L 1525.7065 119.25 C 1525.7065 124.22056 1521.677 128.25 1516.7065 128.25 L 1014.7065 128.25 C 1009.7359 128.25 1005.7065 124.22056 1005.7065 119.25 L 1005.7065 97.25 C 1005.7065 92.27944 1009.7359 88.25 1014.7065 88.25 Z" stroke="black" stroke-linecap="round" stroke-linejoin="round" stroke-width="1"/>
        <text transform="translate(1010.7065 100.054)" fill="black">
          <tspan font-family="Helvetica Neue" font-size="14" fill="black" x="0" y="13">Subject</tspan>
        </text>
      </g>
      <g id="Graphic_56">
        <path d="M 1014.7065 142.25 L 1516.7065 142.25 C 1521.677 142.25 1525.7065 146.27944 1525.7065 151.25 L 1525.7065 173.25 C 1525.7065 178.22056 1521.677 182.25 1516.7065 182.25 L 1014.7065 182.25 C 1009.7359 182.25 1005.7065 178.22056 1005.7065 173.25 L 1005.7065 151.25 C 1005.7065 146.27944 1009.7359 142.25 1014.7065 142.25 Z" fill="#c0ffc0"/>
        <path d="M 1014.7065 142.25 L 1516.7065 142.25 C 1521.677 142.25 1525.7065 146.27944 1525.7065 151.25 L 1525.7065 173.25 C 1525.7065 178.22056 1521.677 182.25 1516.7065 182.25 L 1014.7065 182.25 C 1009.7359 182.25 1005.7065 178.22056 1005.7065 173.25 L 1005.7065 151.25 C 1005.7065 146.27944 1009.7359 142.25 1014.7065 142.25 Z" stroke="black" stroke-linecap="round" stroke-linejoin="round" stroke-width="1"/>
        <text transform="translate(1010.7065 154.054)" fill="black">
          <tspan font-family="Helvetica Neue" font-size="14" fill="black" x="0" y="13">Certifier</tspan>
        </text>
      </g>
      <g id="Graphic_55">
        <path d="M 1014.2065 196.25 L 1516.2065 196.25 C 1521.177 196.25 1525.2065 200.27944 1525.2065 205.25 L 1525.2065 292.25 C 1525.2065 297.22056 1521.177 301.25 1516.2065 301.25 L 1014.2065 301.25 C 1009.2359 301.25 1005.2065 297.22056 1005.2065 292.25 L 1005.2065 205.25 C 1005.2065 200.27944 1009.2359 196.25 1014.2065 196.25 Z" fill="#c0ffc0"/>
        <path d="M 1014.2065 196.25 L 1516.2065 196.25 C 1521.177 196.25 1525.2065 200.27944 1525.2065 205.25 L 1525.2065 292.25 C 1525.2065 297.22056 1521.177 301.25 1516.2065 301.25 L 1014.2065 301.25 C 1009.2359 301.25 1005.2065 297.22056 1005.2065 292.25 L 1005.2065 205.25 C 1005.2065 200.27944 1009.2359 196.25 1014.2065 196.25 Z" stroke="black" stroke-linecap="round" stroke-linejoin="round" stroke-width="1"/>
      </g>
      <g id="Graphic_47">
        <path d="M 1002.7065 588.375 L 1551.7065 588.375 C 1556.677 588.375 1560.7065 592.40444 1560.7065 597.375 L 1560.7065 664.375 C 1560.7065 669.3456 1556.677 673.375 1551.7065 673.375 L 1002.7065 673.375 C 997.7359 673.375 993.7065 669.3456 993.7065 664.375 L 993.7065 597.375 C 993.7065 592.40444 997.7359 588.375 1002.7065 588.375 Z" fill="#ccc"/>
        <path d="M 1002.7065 588.375 L 1551.7065 588.375 C 1556.677 588.375 1560.7065 592.40444 1560.7065 597.375 L 1560.7065 664.375 C 1560.7065 669.3456 1556.677 673.375 1551.7065 673.375 L 1002.7065 673.375 C 997.7359 673.375 993.7065 669.3456 993.7065 664.375 L 993.7065 597.375 C 993.7065 592.40444 997.7359 588.375 1002.7065 588.375 Z" stroke="black" stroke-linecap="round" stroke-linejoin="round" stroke-width="1"/>
        <text transform="translate(998.7065 593.375)" fill="black">
          <tspan font-family="Helvetica Neue" font-size="14" fill="black" x="0" y="13">Entry</tspan>
        </text>
      </g>
      <g id="Graphic_46">
        <path d="M 995.5776 485 L 1544.5776 485 C 1549.5481 485 1553.5776 489.02944 1553.5776 494 L 1553.5776 561 C 1553.5776 565.97056 1549.5481 570 1544.5776 570 L 995.5776 570 C 990.607 570 986.5776 565.97056 986.5776 561 L 986.5776 494 C 986.5776 489.02944 990.607 485 995.5776 485 Z" fill="#ccc"/>
        <path d="M 995.5776 485 L 1544.5776 485 C 1549.5481 485 1553.5776 489.02944 1553.5776 494 L 1553.5776 561 C 1553.5776 565.97056 1549.5481 570 1544.5776 570 L 995.5776 570 C 990.607 570 986.5776 565.97056 986.5776 561 L 986.5776 494 C 986.5776 489.02944 990.607 485 995.5776 485 Z" stroke="black" stroke-linecap="round" stroke-linejoin="round" stroke-width="1"/>
        <text transform="translate(991.5776 490)" fill="black">
          <tspan font-family="Helvetica Neue" font-size="14" fill="black" x="0" y="13">Entry</tspan>
        </text>
      </g>
      <g id="Graphic_45">
        <path d="M 995.5776 799.75 L 1544.5776 799.75 C 1549.5481 799.75 1553.5776 803.7794 1553.5776 808.75 L 1553.5776 875.75 C 1553.5776 880.7206 1549.5481 884.75 1544.5776 884.75 L 995.5776 884.75 C 990.607 884.75 986.5776 880.7206 986.5776 875.75 L 986.5776 808.75 C 986.5776 803.7794 990.607 799.75 995.5776 799.75 Z" fill="#ccc"/>
        <path d="M 995.5776 799.75 L 1544.5776 799.75 C 1549.5481 799.75 1553.5776 803.7794 1553.5776 808.75 L 1553.5776 875.75 C 1553.5776 880.7206 1549.5481 884.75 1544.5776 884.75 L 995.5776 884.75 C 990.607 884.75 986.5776 880.7206 986.5776 875.75 L 986.5776 808.75 C 986.5776 803.7794 990.607 799.75 995.5776 799.75 Z" stroke="black" stroke-linecap="round" stroke-linejoin="round" stroke-width="1"/>
        <text transform="translate(991.5776 804.75)" fill="black">
          <tspan font-family="Helvetica Neue" font-size="14" fill="black" x="0" y="13">Entry … </tspan>
        </text>
      </g>
      <g id="Graphic_42">
        <path d="M 1011.2065 613 L 1538.2065 613 C 1543.177 613 1547.2065 617.02944 1547.2065 622 L 1547.2065 644 C 1547.2065 648.9706 1543.177 653 1538.2065 653 L 1011.2065 653 C 1006.2359 653 1002.2065 648.9706 1002.2065 644 L 1002.2065 622 C 1002.2065 617.02944 1006.2359 613 1011.2065 613 Z" fill="white"/>
        <path d="M 1011.2065 613 L 1538.2065 613 C 1543.177 613 1547.2065 617.02944 1547.2065 622 L 1547.2065 644 C 1547.2065 648.9706 1543.177 653 1538.2065 653 L 1011.2065 653 C 1006.2359 653 1002.2065 648.9706 1002.2065 644 L 1002.2065 622 C 1002.2065 617.02944 1006.2359 613 1011.2065 613 Z" stroke="black" stroke-linecap="round" stroke-linejoin="round" stroke-width="1"/>
        <text transform="translate(1007.2065 624.29695)" fill="black">
          <tspan font-family="Helvetica Neue" font-size="14" fill="black" x="0" y="14">Decedent</tspan>
          <tspan font-family="Helvetica Neue" font-size="14" fill="black" y="14"> (Profile of </tspan>
          <tspan font-family="Helvetica Neue" font-size="14" fill="black" y="14">Patient</tspan>
          <tspan font-family="Helvetica Neue" font-size="14" fill="black" y="14">)</tspan>
        </text>
      </g>
      <g id="Graphic_41">
        <path d="M 1006.5776 517 L 1533.5776 517 C 1538.5481 517 1542.5776 521.02944 1542.5776 526 L 1542.5776 548 C 1542.5776 552.97056 1538.5481 557 1533.5776 557 L 1006.5776 557 C 1001.607 557 997.5776 552.97056 997.5776 548 L 997.5776 526 C 997.5776 521.02944 1001.607 517 1006.5776 517 Z" fill="white"/>
        <path d="M 1006.5776 517 L 1533.5776 517 C 1538.5481 517 1542.5776 521.02944 1542.5776 526 L 1542.5776 548 C 1542.5776 552.97056 1538.5481 557 1533.5776 557 L 1006.5776 557 C 1001.607 557 997.5776 552.97056 997.5776 548 L 997.5776 526 C 997.5776 521.02944 1001.607 517 1006.5776 517 Z" stroke="black" stroke-linecap="round" stroke-linejoin="round" stroke-width="1"/>
        <text transform="translate(1002.5776 528.29695)" fill="black">
          <tspan font-family="Helvetica Neue" font-size="14" fill="black" x="0" y="14">Certifier</tspan>
          <tspan font-family="Helvetica Neue" font-size="14" fill="black" y="14"> (Profile of </tspan>
          <tspan font-family="Helvetica Neue" font-size="14" fill="black" y="14">USCorePractitioner</tspan>
          <tspan font-family="Helvetica Neue" font-size="14" fill="black" y="14">)</tspan>
        </text>
      </g>
      <g id="Graphic_40">
        <path d="M 1011.2065 831.75 L 1538.2065 831.75 C 1543.177 831.75 1547.2065 835.7794 1547.2065 840.75 L 1547.2065 862.75 C 1547.2065 867.7206 1543.177 871.75 1538.2065 871.75 L 1011.2065 871.75 C 1006.2359 871.75 1002.2065 867.7206 1002.2065 862.75 L 1002.2065 840.75 C 1002.2065 835.7794 1006.2359 831.75 1011.2065 831.75 Z" fill="white"/>
        <path d="M 1011.2065 831.75 L 1538.2065 831.75 C 1543.177 831.75 1547.2065 835.7794 1547.2065 840.75 L 1547.2065 862.75 C 1547.2065 867.7206 1543.177 871.75 1538.2065 871.75 L 1011.2065 871.75 C 1006.2359 871.75 1002.2065 867.7206 1002.2065 862.75 L 1002.2065 840.75 C 1002.2065 835.7794 1006.2359 831.75 1011.2065 831.75 Z" stroke="black" stroke-linecap="round" stroke-linejoin="round" stroke-width="1"/>
        <text transform="translate(1007.2065 843.047)" fill="black">
          <tspan font-family="Helvetica Neue" font-size="14" fill="black" x="0" y="14">All other referenced content of the Death Certificate</tspan>
        </text>
      </g>
      <g id="Graphic_61">
        <path d="M 1014.7065 315.25 L 1516.7065 315.25 C 1521.677 315.25 1525.7065 319.27944 1525.7065 324.25 L 1525.7065 346.25 C 1525.7065 351.22056 1521.677 355.25 1516.7065 355.25 L 1014.7065 355.25 C 1009.7359 355.25 1005.7065 351.22056 1005.7065 346.25 L 1005.7065 324.25 C 1005.7065 319.27944 1009.7359 315.25 1014.7065 315.25 Z" fill="#c0ffc0"/>
        <path d="M 1014.7065 315.25 L 1516.7065 315.25 C 1521.677 315.25 1525.7065 319.27944 1525.7065 324.25 L 1525.7065 346.25 C 1525.7065 351.22056 1521.677 355.25 1516.7065 355.25 L 1014.7065 355.25 C 1009.7359 355.25 1005.7065 351.22056 1005.7065 346.25 L 1005.7065 324.25 C 1005.7065 319.27944 1009.7359 315.25 1014.7065 315.25 Z" stroke="black" stroke-linecap="round" stroke-linejoin="round" stroke-width="1"/>
        <text transform="translate(1010.7065 326.026)" fill="black">
          <tspan font-family="Helvetica Neue" font-size="16" fill="black" x="0" y="15">Section: Death Investigation</tspan>
        </text>
      </g>
      <g id="Graphic_62">
        <path d="M 1014.7065 363.25 L 1516.7065 363.25 C 1521.677 363.25 1525.7065 367.27944 1525.7065 372.25 L 1525.7065 394.25 C 1525.7065 399.22056 1521.677 403.25 1516.7065 403.25 L 1014.7065 403.25 C 1009.7359 403.25 1005.7065 399.22056 1005.7065 394.25 L 1005.7065 372.25 C 1005.7065 367.27944 1009.7359 363.25 1014.7065 363.25 Z" fill="#c0ffc0"/>
        <path d="M 1014.7065 363.25 L 1516.7065 363.25 C 1521.677 363.25 1525.7065 367.27944 1525.7065 372.25 L 1525.7065 394.25 C 1525.7065 399.22056 1521.677 403.25 1516.7065 403.25 L 1014.7065 403.25 C 1009.7359 403.25 1005.7065 399.22056 1005.7065 394.25 L 1005.7065 372.25 C 1005.7065 367.27944 1009.7359 363.25 1014.7065 363.25 Z" stroke="black" stroke-linecap="round" stroke-linejoin="round" stroke-width="1"/>
        <text transform="translate(1010.7065 374.026)" fill="black">
          <tspan font-family="Helvetica Neue" font-size="16" fill="black" x="0" y="15">Section: Death Certification </tspan>
        </text>
      </g>
      <g id="Graphic_63">
        <path d="M 1014.7065 411.25 L 1516.7065 411.25 C 1521.677 411.25 1525.7065 415.27944 1525.7065 420.25 L 1525.7065 442.25 C 1525.7065 447.22056 1521.677 451.25 1516.7065 451.25 L 1014.7065 451.25 C 1009.7359 451.25 1005.7065 447.22056 1005.7065 442.25 L 1005.7065 420.25 C 1005.7065 415.27944 1009.7359 411.25 1014.7065 411.25 Z" fill="#c0ffc0"/>
        <path d="M 1014.7065 411.25 L 1516.7065 411.25 C 1521.677 411.25 1525.7065 415.27944 1525.7065 420.25 L 1525.7065 442.25 C 1525.7065 447.22056 1521.677 451.25 1516.7065 451.25 L 1014.7065 451.25 C 1009.7359 451.25 1005.7065 447.22056 1005.7065 442.25 L 1005.7065 420.25 C 1005.7065 415.27944 1009.7359 411.25 1014.7065 411.25 Z" stroke="black" stroke-linecap="round" stroke-linejoin="round" stroke-width="1"/>
        <text transform="translate(1010.7065 422.026)" fill="black">
          <tspan font-family="Helvetica Neue" font-size="16" fill="black" x="0" y="15">Section: Decedent Disposition</tspan>
        </text>
      </g>
      <g id="Graphic_64">
        <text transform="translate(1021.5776 201.25)" fill="black">
          <tspan font-family="Helvetica Neue" font-size="16" fill="black" x="0" y="15">Section:  Decedent Demographics</tspan>
        </text>
      </g>
      <g id="Graphic_65">
        <text transform="translate(1063.2442 229.698)" fill="black">
          <tspan font-family="Helvetica Neue" font-size="16" fill="black" x="0" y="15">Entry :  Deceden</tspan>
          <tspan font-family="Helvetica" font-size="12" fill="black" y="15">t</tspan>
          <tspan font-family="Helvetica" font-size="12" fill="black" x="0" y="29.447998">Entry: Decedent Father</tspan>
          <tspan font-family="Helvetica" font-size="12" fill="black" x="0" y="43.448">Entry: Decedent Mother</tspan>
        </text>
      </g>
      <g id="Graphic_74">
        <path d="M 1000.2065 692.0625 L 1549.2065 692.0625 C 1554.177 692.0625 1558.2065 696.0919 1558.2065 701.0625 L 1558.2065 768.0625 C 1558.2065 773.0331 1554.177 777.0625 1549.2065 777.0625 L 1000.2065 777.0625 C 995.2359 777.0625 991.2065 773.0331 991.2065 768.0625 L 991.2065 701.0625 C 991.2065 696.0919 995.2359 692.0625 1000.2065 692.0625 Z" fill="#ccc"/>
        <path d="M 1000.2065 692.0625 L 1549.2065 692.0625 C 1554.177 692.0625 1558.2065 696.0919 1558.2065 701.0625 L 1558.2065 768.0625 C 1558.2065 773.0331 1554.177 777.0625 1549.2065 777.0625 L 1000.2065 777.0625 C 995.2359 777.0625 991.2065 773.0331 991.2065 768.0625 L 991.2065 701.0625 C 991.2065 696.0919 995.2359 692.0625 1000.2065 692.0625 Z" stroke="black" stroke-linecap="round" stroke-linejoin="round" stroke-width="1"/>
        <text transform="translate(996.2065 697.0625)" fill="black">
          <tspan font-family="Helvetica Neue" font-size="14" fill="black" x="0" y="13">Entry … </tspan>
        </text>
      </g>
      <g id="Line_69">
        <path d="M 1525.7065 104.53763 L 1662.5776 102.58333 L 1662.5776 627.9167 L 1570.6062 628.6227" marker-end="url(#FilledArrow_Marker)" stroke="black" stroke-linecap="round" stroke-linejoin="round" stroke-width="1"/>
      </g>
      <g id="Line_73">
        <path d="M 1058.2442 250.34284 L 910 244.75 L 910 752.6836 L 970.807 752.024" marker-end="url(#FilledArrow_Marker)" stroke="black" stroke-linecap="round" stroke-linejoin="round" stroke-width="1"/>
      </g>
      <g id="Graphic_66">
        <path d="M 1011.2065 727.5625 L 1538.2065 727.5625 C 1543.177 727.5625 1547.2065 731.5919 1547.2065 736.5625 L 1547.2065 758.5625 C 1547.2065 763.5331 1543.177 767.5625 1538.2065 767.5625 L 1011.2065 767.5625 C 1006.2359 767.5625 1002.2065 763.5331 1002.2065 758.5625 L 1002.2065 736.5625 C 1002.2065 731.5919 1006.2359 727.5625 1011.2065 727.5625 Z" fill="white"/>
        <path d="M 1011.2065 727.5625 L 1538.2065 727.5625 C 1543.177 727.5625 1547.2065 731.5919 1547.2065 736.5625 L 1547.2065 758.5625 C 1547.2065 763.5331 1543.177 767.5625 1538.2065 767.5625 L 1011.2065 767.5625 C 1006.2359 767.5625 1002.2065 763.5331 1002.2065 758.5625 L 1002.2065 736.5625 C 1002.2065 731.5919 1006.2359 727.5625 1011.2065 727.5625 Z" stroke="black" stroke-linecap="round" stroke-linejoin="round" stroke-width="1"/>
        <text transform="translate(1007.2065 738.85945)" fill="black">
          <tspan font-family="Helvetica Neue" font-size="14" fill="black" x="0" y="14">DecedentFather</tspan>
          <tspan font-family="Helvetica Neue" font-size="14" fill="black" y="14"> (Profile of </tspan>
          <tspan font-family="Helvetica Neue" font-size="14" fill="black" y="14">RelatedPerson</tspan>
          <tspan font-family="Helvetica Neue" font-size="14" fill="black" y="14">)</tspan>
        </text>
      </g>
    </g>
  </g>
</svg>
